<?xml version="1.0" standalone="no"?>
<!DOCTYPE svg PUBLIC "-//W3C//DTD SVG 20010904//EN"
 "http://www.w3.org/TR/2001/REC-SVG-20010904/DTD/svg10.dtd">
<svg version="1.0" xmlns="http://www.w3.org/2000/svg"
 width="594.000000pt" height="594.000000pt" viewBox="0 0 594.000000 594.000000"
 preserveAspectRatio="xMidYMid meet">
<metadata>
Created by potrace 1.11, written by Peter Selinger 2001-2013
</metadata>
<g transform="translate(0.000000,594.000000) scale(0.100000,-0.100000)"
fill="#000000" stroke="none">
<path d="M2730 5934 c-19 -2 -89 -11 -155 -20 -1125 -151 -2075 -967 -2415
-2074 -42 -137 -83 -321 -100 -445 -6 -44 -13 -93 -16 -110 -3 -16 -7 -131
-11 -255 -12 -511 88 -971 307 -1411 158 -316 323 -545 574 -795 426 -424 905
-678 1526 -810 19 -4 243 -9 497 -11 380 -3 476 -1 545 11 124 23 138 26 198
42 30 8 64 17 75 19 55 12 253 83 355 127 250 107 478 245 700 422 73 59 317
296 376 366 304 362 515 763 623 1185 79 307 94 428 95 745 1 224 -5 370 -18
435 -2 11 -7 43 -10 70 -45 333 -202 767 -392 1081 -198 328 -486 646 -784
865 -338 247 -740 429 -1125 507 -95 20 -128 25 -220 38 -22 3 -51 8 -65 11
-31 6 -512 12 -560 7z"/>
</g>
</svg>
